<?xml version='1.0' encoding='utf-8'?>
<!DOCTYPE svg>
<!-- Generator: Adobe Illustrator 14.0.0, SVG Export Plug-In . SVG Version: 6.00 Build 43363)  -->
<svg xmlns="http://www.w3.org/2000/svg" version="1.1" x="0px" enable-background="new 0 0 21.6 23.76" gorn="0"  id="svg2" width="0.3in" y="0px" xml:space="preserve" xmlns:xml="http://www.w3.org/XML/1998/namespace" height="0.33in" viewBox="0 0 21.6 23.76">
    <desc>
        <referenceFile>microcontroller.svg</referenceFile>
    </desc>
    <g gorn="0.0"  id="icon">
        <rect x="0" gorn="0.0.0"  id="middle" width="21.6" y="2.16" height="19.438" fill="#303030"/>
        <rect x="0" gorn="0.0.1"  id="top" width="21.6" y="2.16" height="1.771" fill="#3D3D3D"/>
        <rect x="0" gorn="0.0.2"  id="bottom" width="21.6" y="19.828" height="1.771"/>
        <polygon gorn="0.0.3"  id="left" points="0,2.16 0.54,3.931 0.54,19.828 0,21.6 " fill="#1F1F1F"/>
        <polygon gorn="0.0.4"  id="left-upper-rect" points="3.6,8.28 0.54,8.251 0.404,9.778 0.404,11.88 3.6,11.88 " fill="#1C1C1C"/>
        <polygon gorn="0.0.5"  id="left-lower-rect" points="0.54,15.516 3.6,15.516 3.6,11.88 0.404,11.88 0.404,13.983 " fill="#383838"/>
        <path gorn="0.0.6"  id="slot" d="M0.404,9.778v4.197c1.059-0.122,1.887-1.008,1.887-2.103C2.289,10.779,1.469,9.9,0.404,9.778z" fill="#262626"/>
        <path gorn="0.0.7"  id="cover" d="M0.54,3.931v4.313c1.713,0.322,3.017,1.82,3.017,3.628s-1.296,3.313-3.017,3.637v0.007h3.6V3.931H0.54z" fill="#303030"/>
        <circle cy="16.898" r="1.483"  cx="4.68" fill="#212121"/>
        <g  transform="matrix(1 0 0 1 3.4827 12.8792)">
            <text  font-size="7.76" font-family="OCRA" fill="#DDDDDD">Atmega</text>
        </g>
        <rect x="2.52" gorn="0.0.10"  id="connector0pin" width="2.16" y="20.635" height="3.125" fill="#8C8C8C"/>
        <rect x="2.52" gorn="0.0.11"  id="connector0terminal" width="2.16" y="21.6" height="2.16" fill="#8C8C8C"/>
        <polygon  points="2.52,20.635 2.52,22.075 4.68,22.075 6.12,21.412 6.12,20.635 " fill="#8C8C8C"/>
        <rect x="2.52" gorn="0.0.13"  id="connector5pin" width="2.16" y="0" height="3.125" fill="#8C8C8C"/>
        <rect x="2.52" gorn="0.0.14"  id="connector5terminal" width="2.16" y="0" height="2.16" fill="#8C8C8C"/>
        <polygon  points="6.12,3.125 6.12,2.347 4.68,1.685 2.52,1.685 2.52,3.125 " fill="#8C8C8C"/>
        <rect x="16.92" gorn="0.0.16"  id="connector2pin" width="2.16" y="20.635" height="3.125" fill="#8C8C8C"/>
        <rect x="16.92" gorn="0.0.17"  id="connector2terminal" width="2.16" y="21.6" height="2.16" fill="#8C8C8C"/>
        <polygon  points="15.48,20.635 15.48,21.412 16.92,22.075 19.08,22.075 19.08,20.635 " fill="#8C8C8C"/>
        <rect x="16.92" gorn="0.0.19"  id="connector3pin" width="2.16" y="0" height="3.125" fill="#8C8C8C"/>
        <rect x="16.92" gorn="0.0.20"  id="connector3terminal" width="2.16" y="0" height="2.16" fill="#8C8C8C"/>
        <polygon  points="19.08,3.125 19.08,1.685 16.92,1.685 15.48,2.347 15.48,3.125 " fill="#8C8C8C"/>
        <rect x="9.72" gorn="0.0.22"  id="connector1pin" width="2.16" y="20.635" height="3.125" fill="#8C8C8C"/>
        <rect x="9.72" gorn="0.0.23"  id="connector1terminal" width="2.16" y="21.6" height="2.16" fill="#8C8C8C"/>
        <polygon  points="8.28,20.635 8.28,21.412 9.72,22.075 11.88,22.075 13.32,21.412 13.32,20.635 " fill="#8C8C8C"/>
        <rect x="9.72" gorn="0.0.25"  id="connector4pin" width="2.16" y="0" height="3.125" fill="#8C8C8C"/>
        <rect x="9.72" gorn="0.0.26"  id="connector4terminal" width="2.16" y="0" height="2.16" fill="#8C8C8C"/>
        <polygon  points="13.32,3.125 13.32,2.347 11.88,1.685 9.72,1.685 8.28,2.347 8.28,3.125 " fill="#8C8C8C"/>
    </g>
</svg>
